<?xml version="1.0" encoding="UTF-8" standalone="no"?>
<!DOCTYPE svg PUBLIC "-//W3C//DTD SVG 1.1//EN" "http://www.w3.org/Graphics/SVG/1.1/DTD/svg11.dtd">
<svg version="1.1" xmlns="http://www.w3.org/2000/svg" xmlns:xlink="http://www.w3.org/1999/xlink" preserveAspectRatio="xMidYMid meet" viewBox="11.877808405392102 348.6711409395974 24.999999999999993 24.99991769484194" width="25" height="25"><defs><path d="M23.02 348.7L23.43 348.74L23.84 348.8L24.24 348.87L24.64 348.96L25.04 349.06L25.42 349.18L25.8 349.31L26.18 349.45L26.54 349.61L26.9 349.78L27.25 349.96L27.59 350.16L27.92 350.37L28.25 350.59L28.56 350.82L28.87 351.06L29.16 351.31L29.45 351.58L29.72 351.85L29.99 352.14L30.24 352.43L30.48 352.73L30.71 353.04L30.92 353.37L31.13 353.69L31.32 354.03L31.49 354.38L31.66 354.73L31.81 355.09L31.94 355.45L32.06 355.83L32.17 356.2L32.26 356.59L32.33 356.98L32.39 357.37L32.43 357.77L32.46 358.18L32.47 358.58L32.46 358.79L32.46 358.99L32.45 359.19L32.43 359.39L32.41 359.59L32.39 359.79L32.36 359.99L32.33 360.19L32.3 360.38L32.26 360.57L32.21 360.77L32.17 360.96L32.12 361.15L32.06 361.34L32 361.52L31.94 361.71L31.88 361.89L31.81 362.07L31.73 362.25L31.66 362.43L31.58 362.61L31.5 362.78L31.41 362.96L31.32 363.13L31.23 363.3L31.13 363.46L31.03 363.63L30.93 363.79L30.82 363.95L30.71 364.11L30.6 364.27L30.48 364.42L30.37 364.58L30.24 364.73L30.12 364.87L29.99 365.02L29.86 365.16L29.73 365.3L29.6 365.44L29.46 365.58L36.74 372.87L36.75 372.89L36.77 372.9L36.78 372.92L36.79 372.93L36.8 372.95L36.81 372.96L36.82 372.98L36.83 373L36.84 373.01L36.85 373.03L36.85 373.05L36.86 373.06L36.86 373.08L36.87 373.1L36.87 373.12L36.87 373.14L36.88 373.15L36.88 373.17L36.88 373.19L36.88 373.21L36.88 373.23L36.88 373.24L36.87 373.26L36.87 373.28L36.87 373.3L36.86 373.32L36.86 373.33L36.85 373.35L36.85 373.37L36.84 373.39L36.83 373.4L36.82 373.42L36.81 373.43L36.8 373.45L36.79 373.47L36.78 373.48L36.77 373.5L36.76 373.51L36.74 373.53L36.73 373.54L36.72 373.55L36.71 373.55L36.71 373.56L36.7 373.56L36.69 373.57L36.68 373.58L36.68 373.58L36.67 373.59L36.66 373.59L36.65 373.6L36.64 373.6L36.64 373.61L36.63 373.61L36.62 373.62L36.61 373.62L36.6 373.62L36.59 373.63L36.59 373.63L36.58 373.63L36.57 373.64L36.56 373.64L36.55 373.64L36.54 373.65L36.53 373.65L36.52 373.65L36.52 373.66L36.51 373.66L36.5 373.66L36.49 373.66L36.48 373.66L36.47 373.66L36.46 373.67L36.45 373.67L36.44 373.67L36.43 373.67L36.42 373.67L36.42 373.67L36.41 373.67L36.4 373.67L36.38 373.67L36.37 373.67L36.36 373.67L36.35 373.67L36.34 373.67L36.33 373.67L36.32 373.67L36.31 373.67L36.3 373.66L36.29 373.66L36.28 373.66L36.27 373.66L36.26 373.66L36.25 373.65L36.24 373.65L36.24 373.65L36.23 373.65L36.22 373.64L36.21 373.64L36.2 373.63L36.19 373.63L36.18 373.63L36.17 373.62L36.16 373.62L36.15 373.61L36.15 373.61L36.14 373.61L36.13 373.6L36.12 373.6L36.11 373.59L36.1 373.58L36.1 373.58L36.09 373.57L36.08 373.57L36.07 373.56L36.06 373.55L36.06 373.55L36.05 373.54L36.04 373.53L36.03 373.53L28.73 366.21L28.6 366.32L28.46 366.42L28.32 366.52L28.18 366.62L28.04 366.72L27.9 366.82L27.75 366.91L27.61 367L27.46 367.09L27.31 367.17L27.15 367.25L27 367.33L26.85 367.41L26.69 367.49L26.53 367.56L26.37 367.63L26.21 367.7L26.05 367.77L25.88 367.83L25.72 367.89L25.55 367.95L25.38 368L25.21 368.05L25.04 368.1L24.87 368.15L24.7 368.19L24.53 368.23L24.35 368.27L24.17 368.31L24 368.34L23.82 368.37L23.64 368.39L23.46 368.42L23.28 368.44L23.1 368.46L22.91 368.47L22.73 368.48L22.54 368.49L22.36 368.49L22.17 368.5L21.75 368.49L21.33 368.46L20.91 368.42L20.5 368.37L20.1 368.29L19.7 368.21L19.31 368.11L18.92 367.99L18.54 367.86L18.17 367.72L17.8 367.56L17.45 367.39L17.1 367.2L16.75 367.01L16.42 366.8L16.1 366.58L15.78 366.35L15.48 366.11L15.18 365.85L14.9 365.59L14.62 365.31L14.36 365.03L14.11 364.74L13.87 364.43L13.64 364.12L13.42 363.8L13.22 363.47L13.03 363.13L12.85 362.79L12.69 362.44L12.54 362.08L12.4 361.71L12.28 361.34L12.18 360.96L12.09 360.58L12.01 360.19L11.95 359.79L11.91 359.39L11.89 358.99L11.88 358.58L11.89 358.18L11.91 357.77L11.95 357.37L12.01 356.98L12.09 356.59L12.18 356.2L12.28 355.83L12.4 355.45L12.54 355.09L12.69 354.73L12.85 354.38L13.03 354.03L13.22 353.69L13.42 353.37L13.64 353.04L13.87 352.73L14.11 352.43L14.36 352.14L14.62 351.85L14.9 351.58L15.18 351.31L15.48 351.06L15.78 350.82L16.1 350.59L16.42 350.37L16.75 350.16L17.1 349.96L17.45 349.78L17.8 349.61L18.17 349.45L18.54 349.31L18.92 349.18L19.31 349.06L19.7 348.96L20.1 348.87L20.5 348.8L20.91 348.74L21.33 348.7L21.75 348.68L22.17 348.67L22.6 348.68L23.02 348.7ZM21.09 349.68L20.56 349.75L20.04 349.85L19.53 349.98L19.03 350.14L18.55 350.32L18.08 350.53L17.62 350.76L17.18 351.01L16.76 351.29L16.35 351.59L15.96 351.91L15.59 352.24L15.24 352.6L14.91 352.98L14.6 353.37L14.31 353.78L14.05 354.2L13.81 354.64L13.59 355.1L13.4 355.56L13.24 356.04L13.1 356.53L13 357.03L12.92 357.54L12.87 358.06L12.86 358.58L12.87 359.11L12.92 359.63L13 360.14L13.1 360.64L13.24 361.13L13.4 361.6L13.59 362.07L13.81 362.52L14.05 362.96L14.31 363.39L14.6 363.8L14.91 364.19L15.24 364.56L15.59 364.92L15.96 365.26L16.35 365.58L16.76 365.88L17.18 366.15L17.62 366.41L18.08 366.64L18.55 366.85L19.03 367.03L19.53 367.18L20.04 367.31L20.56 367.42L21.09 367.49L21.63 367.54L22.17 367.55L22.72 367.54L23.26 367.49L23.79 367.42L24.3 367.31L24.81 367.18L25.31 367.03L25.79 366.85L26.26 366.64L26.72 366.41L27.16 366.15L27.59 365.88L27.99 365.58L28.38 365.26L28.75 364.92L29.11 364.56L29.44 364.19L29.75 363.8L30.03 363.39L30.3 362.96L30.54 362.52L30.75 362.07L30.94 361.6L31.1 361.13L31.24 360.64L31.35 360.14L31.42 359.63L31.47 359.11L31.49 358.58L31.47 358.06L31.42 357.54L31.35 357.03L31.24 356.53L31.1 356.04L30.94 355.56L30.75 355.1L30.54 354.64L30.3 354.2L30.03 353.78L29.75 353.37L29.44 352.98L29.11 352.6L28.75 352.24L28.38 351.91L27.99 351.59L27.59 351.29L27.16 351.01L26.72 350.76L26.26 350.53L25.79 350.32L25.31 350.14L24.81 349.98L24.31 349.85L23.79 349.75L23.26 349.68L22.72 349.63L22.17 349.62L21.63 349.63L21.09 349.68Z" id="aEsmEwiv"></path></defs><g visibility="inherit"><g visibility="inherit"><use xlink:href="#aEsmEwiv" opacity="1" fill="#6f6b6b" fill-opacity="1"></use><g><use xlink:href="#aEsmEwiv" opacity="1" fill-opacity="0" stroke="#393737" stroke-width="1" stroke-opacity="0"></use></g></g></g></svg>